<?xml version="1.0" encoding="UTF-8"?>
<!DOCTYPE svg PUBLIC "-//W3C//DTD SVG 1.1//EN" "http://www.w3.org/Graphics/SVG/1.1/DTD/svg11.dtd">
<svg xmlns="http://www.w3.org/2000/svg" version="1.1" width="500px" height="500px" style="shape-rendering:geometricPrecision; text-rendering:geometricPrecision; image-rendering:optimizeQuality; fill-rule:evenodd; clip-rule:evenodd" xmlns:xlink="http://www.w3.org/1999/xlink">
<g><path style="opacity:0.004" fill="#e1e1e1" d="M 78.5,76.5 C 79.525,76.8966 79.6917,77.5632 79,78.5C 78.5357,77.9056 78.369,77.2389 78.5,76.5 Z"/></g>
<g><path style="opacity:0.979" fill="#f7f7f7" d="M 357.5,124.5 C 354.505,124.294 351.838,124.96 349.5,126.5C 320.408,134.412 291.075,141.745 261.5,148.5C 258.848,148.41 256.515,149.076 254.5,150.5C 245.96,153.126 237.293,155.126 228.5,156.5C 225.848,156.41 223.515,157.076 221.5,158.5C 215.849,160.686 210.182,162.353 204.5,163.5C 203.432,162.566 202.099,162.232 200.5,162.5C 200.557,158.867 199.557,158.7 197.5,162C 196.216,162.684 195.049,162.517 194,161.5C 193.544,162.744 194.044,163.577 195.5,164C 193.567,164.783 192.067,164.283 191,162.5C 187.173,163.5 184.007,165.5 181.5,168.5C 164.584,172.483 147.417,176.816 130,181.5C 127.843,177.826 127.01,178.493 127.5,183.5C 127.553,188.007 126.22,192.007 123.5,195.5C 123.167,196.5 122.5,197.167 121.5,197.5C 118.528,199.65 115.195,200.65 111.5,200.5C 108.894,199.864 106.394,199.864 104,200.5C 102.333,199.833 100.667,199.167 99,198.5C 97.5146,193.56 96.1813,188.56 95,183.5C 93.8846,179.516 94.8846,176.182 98,173.5C 98.9449,169.886 99.6116,166.219 100,162.5C 102.221,159.065 104.221,155.399 106,151.5C 110.714,147.817 116.047,145.484 122,144.5C 124.516,141.651 127.349,139.151 130.5,137C 134.475,135.621 137.309,136.787 139,140.5C 179.62,130.711 220.12,120.544 260.5,110C 261.167,106.333 261.833,102.667 262.5,99C 265.23,98.2716 267.897,98.4383 270.5,99.5C 271.042,102.873 272.876,105.206 276,106.5C 282.382,104.928 288.549,102.762 294.5,100C 307.339,99.0326 319.673,96.0326 331.5,91C 336.21,90.6249 340.877,89.9582 345.5,89C 354.164,86.8779 362.664,84.3779 371,81.5C 381.954,81.1307 388.954,86.1307 392,96.5C 395.048,107.231 391.548,114.731 381.5,119C 373.577,121.125 365.577,122.959 357.5,124.5 Z M 362.5,96.5 C 363.873,96.3433 365.207,96.51 366.5,97C 369.833,100.333 373.167,103.667 376.5,107C 371.087,109.437 365.42,110.77 359.5,111C 356.725,107.437 353.725,104.104 350.5,101C 354.527,99.3826 358.527,97.8826 362.5,96.5 Z M 314.5,108.5 C 316.527,108.338 318.527,108.505 320.5,109C 323.683,112.015 326.683,115.182 329.5,118.5C 324.88,120.727 320.047,122.393 315,123.5C 311.167,119.667 307.333,115.833 303.5,112C 307.224,110.832 310.891,109.665 314.5,108.5 Z M 271.5,119.5 C 272.552,119.351 273.552,119.517 274.5,120C 277.87,123.035 280.87,126.368 283.5,130C 278.539,132.859 273.205,134.192 267.5,134C 265.317,131.65 262.984,129.483 260.5,127.5C 259.05,126.15 258.383,124.484 258.5,122.5C 262.911,121.402 267.245,120.402 271.5,119.5 Z M 216.5,141.5 C 215.5,138.5 213.5,136.5 210.5,135.5C 215.651,133.592 220.984,131.926 226.5,130.5C 230.473,133.806 234.14,137.473 237.5,141.5C 232.666,143.626 227.666,145.293 222.5,146.5C 220.481,144.81 218.481,143.144 216.5,141.5 Z M 179.5,157.5 C 178.127,157.657 176.793,157.49 175.5,157C 172.964,154.295 170.297,151.795 167.5,149.5C 167.167,148.5 166.5,147.833 165.5,147.5C 166.59,146.143 167.924,145.143 169.5,144.5C 173.533,143.868 177.533,143.368 181.5,143C 184.876,146.342 188.209,149.675 191.5,153C 187.464,154.505 183.464,156.005 179.5,157.5 Z M 130.5,154.5 C 132.199,154.34 133.866,154.506 135.5,155C 137.037,156.707 138.704,158.207 140.5,159.5C 142.132,161.327 143.799,163.161 145.5,165C 140.028,167.273 134.362,168.273 128.5,168C 124.788,165.289 121.788,161.956 119.5,158C 123.333,156.966 126.999,155.8 130.5,154.5 Z M 119.5,170.5 C 119.5,170.167 119.5,169.833 119.5,169.5C 121.027,169.427 122.027,170.094 122.5,171.5C 121.391,171.443 120.391,171.11 119.5,170.5 Z M 122.5,171.5 C 123.289,171.783 123.956,172.283 124.5,173C 123.184,173.528 122.517,173.028 122.5,171.5 Z M 112.5,178.5 C 116.439,180.028 118.105,183.028 117.5,187.5C 114.042,191.42 110.542,191.42 107,187.5C 105.342,182.33 107.176,179.33 112.5,178.5 Z"/></g>
<g><path style="opacity:0.071" fill="#f1f1f1" d="M 273.5,85.5 C 275.8,85.5216 276.967,86.5216 277,88.5C 273.403,90.0661 272.237,89.0661 273.5,85.5 Z"/></g>
<g><path style="opacity:0.043" fill="#d6d6d6" d="M 86.5,85.5 C 88.8543,85.9104 90.8543,86.9104 92.5,88.5C 89.1186,90.1428 87.1186,89.1428 86.5,85.5 Z"/></g>
<g><path style="opacity:0.118" fill="#dbdbdb" d="M 96.5,92.5 C 99.0683,93.5737 100.735,95.5737 101.5,98.5C 101,98.8333 100.5,99.1667 100,99.5C 97.2908,97.9526 96.1241,95.6193 96.5,92.5 Z"/></g>
<g><path style="opacity:0.262" fill="#d1d1d1" d="M 102.5,99.5 C 105.157,99.162 107.49,99.8287 109.5,101.5C 110.98,104.397 112.314,107.397 113.5,110.5C 112.652,112.283 111.319,112.783 109.5,112C 104.853,109.174 102.52,105.007 102.5,99.5 Z"/></g>
<g><path style="opacity:0.02" fill="#858585" d="M 357.5,124.5 C 355.095,125.768 352.428,126.435 349.5,126.5C 351.838,124.96 354.505,124.294 357.5,124.5 Z"/></g>
<g><path style="opacity:0.02" fill="#979797" d="M 210.5,135.5 C 213.5,136.5 215.5,138.5 216.5,141.5C 214.167,139.833 212.167,137.833 210.5,135.5 Z"/></g>
<g><path style="opacity:0.051" fill="#878787" d="M 169.5,144.5 C 167.924,145.143 166.59,146.143 165.5,147.5C 164.711,147.217 164.044,146.717 163.5,146C 165.345,144.872 167.345,144.372 169.5,144.5 Z"/></g>
<g><path style="opacity:0.059" fill="#757575" d="M 261.5,148.5 C 259.485,149.924 257.152,150.59 254.5,150.5C 256.515,149.076 258.848,148.41 261.5,148.5 Z"/></g>
<g><path style="opacity:0.706" fill="#b3b3b3" d="M 167.5,149.5 C 170.297,151.795 172.964,154.295 175.5,157C 176.793,157.49 178.127,157.657 179.5,157.5C 178.054,158.613 176.387,158.78 174.5,158C 171.553,155.564 169.22,152.731 167.5,149.5 Z"/></g>
<g><path style="opacity:0.035" fill="#898989" d="M 130.5,154.5 C 135.495,152.444 138.829,154.111 140.5,159.5C 138.704,158.207 137.037,156.707 135.5,155C 133.866,154.506 132.199,154.34 130.5,154.5 Z"/></g>
<g><path style="opacity:0.161" fill="#949494" d="M 228.5,156.5 C 226.485,157.924 224.152,158.59 221.5,158.5C 223.515,157.076 225.848,156.41 228.5,156.5 Z"/></g>
<g><path style="opacity:0.985" fill="#cdcdcd" d="M 204.5,163.5 C 200.21,164.425 195.876,165.091 191.5,165.5C 193.305,168.91 192.472,171.576 189,173.5C 188.5,173 188,172.5 187.5,172C 190.335,170.56 190.835,168.727 189,166.5C 187.131,169.691 184.631,170.358 181.5,168.5C 184.007,165.5 187.173,163.5 191,162.5C 192.067,164.283 193.567,164.783 195.5,164C 194.044,163.577 193.544,162.744 194,161.5C 195.049,162.517 196.216,162.684 197.5,162C 199.557,158.7 200.557,158.867 200.5,162.5C 202.099,162.232 203.432,162.566 204.5,163.5 Z"/></g>
<g><path style="opacity:0.176" fill="#9b9b9b" d="M 115.5,167.5 C 112.194,168.423 112.528,168.423 116.5,167.5C 117.492,167.328 118.158,167.662 118.5,168.5C 119.167,168.5 119.5,168.833 119.5,169.5C 119.5,169.833 119.5,170.167 119.5,170.5C 114.796,169.398 110.129,169.231 105.5,170C 104.655,168.442 105.321,167.442 107.5,167C 110.367,166.199 113.034,166.366 115.5,167.5 Z"/></g>
<g><path style="opacity:0.431" fill="#d0d0d0" d="M 312.5,167.5 C 313.239,167.369 313.906,167.536 314.5,168C 313.072,169.916 312.072,172.083 311.5,174.5C 307.968,176.251 304.302,177.084 300.5,177C 299.62,175.644 299.286,174.144 299.5,172.5C 304.647,172.753 308.98,171.087 312.5,167.5 Z"/></g>
<g><path style="opacity:0.546" fill="#efefef" d="M 336.5,173.5 C 339.482,173.104 342.149,173.771 344.5,175.5C 342.65,180.391 340.15,180.725 337,176.5C 336.517,175.552 336.351,174.552 336.5,173.5 Z"/></g>
<g><path style="opacity:0.031" fill="#afafaf" d="M 112.5,178.5 C 116.692,178.177 118.692,180.177 118.5,184.5C 118.48,185.726 118.147,186.726 117.5,187.5C 118.105,183.028 116.439,180.028 112.5,178.5 Z"/></g>
<g><path style="opacity:0.992" fill="#f7f7f7" d="M 109.5,226.5 C 104.618,225.784 101.951,222.95 101.5,218C 102.562,214.611 104.062,211.444 106,208.5C 106.743,206.559 106.576,204.726 105.5,203C 107.32,201.311 109.32,201.145 111.5,202.5C 116.004,202.381 120.004,201.048 123.5,198.5C 123.833,197.833 124.167,197.167 124.5,196.5C 127.741,194.017 129.408,190.684 129.5,186.5C 199.209,185.499 268.876,184.999 338.5,185C 340.878,183.741 343.378,183.908 346,185.5C 346.772,185.355 347.439,185.022 348,184.5C 361.758,185.324 375.592,185.824 389.5,186C 396.847,187.181 401.513,191.347 403.5,198.5C 403.007,206.456 402.841,214.456 403,222.5C 307.207,223.41 212.207,223.41 118,222.5C 114.619,222.332 111.453,222.999 108.5,224.5C 108.863,225.183 109.196,225.85 109.5,226.5 Z M 130.5,197.5 C 136.69,197.177 142.69,197.51 148.5,198.5C 145.498,201.161 143.498,204.495 142.5,208.5C 139.685,210.63 136.351,211.63 132.5,211.5C 129.41,211.478 126.743,210.812 124.5,209.5C 126.481,205.539 128.481,201.539 130.5,197.5 Z M 195.5,198.5 C 192.742,201.678 190.742,205.345 189.5,209.5C 188.711,209.783 188.044,210.283 187.5,211C 182.511,211.499 177.511,211.666 172.5,211.5C 172.5,210.5 172.5,209.5 172.5,208.5C 174.417,205.669 176.083,202.669 177.5,199.5C 180.532,197.92 183.865,197.253 187.5,197.5C 190.355,197.503 193.022,197.836 195.5,198.5 Z M 243.5,198.5 C 240.377,201.976 238.043,205.976 236.5,210.5C 233.585,211.122 230.585,211.456 227.5,211.5C 224.41,211.478 221.743,210.812 219.5,209.5C 221.75,206.001 223.75,202.335 225.5,198.5C 231.599,197.194 237.599,197.194 243.5,198.5 Z M 273.5,197.5 C 279.598,196.883 285.265,197.55 290.5,199.5C 287.43,203.008 285.097,207.008 283.5,211.5C 278.167,211.5 272.833,211.5 267.5,211.5C 267.5,210.5 267.5,209.5 267.5,208.5C 269.753,204.997 271.753,201.33 273.5,197.5 Z M 320.5,197.5 C 326.69,197.177 332.69,197.51 338.5,198.5C 335.402,202.358 333.069,206.692 331.5,211.5C 325.402,212.117 319.735,211.45 314.5,209.5C 317.029,205.776 319.029,201.776 320.5,197.5 Z M 368.5,197.5 C 374.176,197.334 379.843,197.501 385.5,198C 384.748,198.671 384.414,199.504 384.5,200.5C 382.385,203.891 380.385,207.391 378.5,211C 372.833,211.667 367.167,211.667 361.5,211C 364.098,206.588 366.431,202.088 368.5,197.5 Z"/></g>
<g><path style="opacity:0.065" fill="#979797" d="M 127.5,183.5 C 128.167,184.5 128.833,185.5 129.5,186.5C 129.408,190.684 127.741,194.017 124.5,196.5C 124.5,195.833 124.167,195.5 123.5,195.5C 126.22,192.007 127.553,188.007 127.5,183.5 Z"/></g>
<g><path style="opacity:0.167" fill="#9a9a9a" d="M 130.5,197.5 C 136.678,196.183 143.012,196.183 149.5,197.5C 149.376,198.107 149.043,198.44 148.5,198.5C 142.69,197.51 136.69,197.177 130.5,197.5 Z"/></g>
<g><path style="opacity:0.168" fill="#989898" d="M 195.5,198.5 C 193.022,197.836 190.355,197.503 187.5,197.5C 183.865,197.253 180.532,197.92 177.5,199.5C 177.414,198.504 177.748,197.671 178.5,197C 184.528,196.17 190.528,196.336 196.5,197.5C 196.376,198.107 196.043,198.44 195.5,198.5 Z"/></g>
<g><path style="opacity:0.184" fill="#9c9c9c" d="M 243.5,198.5 C 237.599,197.194 231.599,197.194 225.5,198.5C 228.258,197.182 231.424,196.515 235,196.5C 238.167,196.833 241.333,197.167 244.5,197.5C 244.376,198.107 244.043,198.44 243.5,198.5 Z"/></g>
<g><path style="opacity:0.214" fill="#a2a2a2" d="M 273.5,197.5 C 279.31,196.51 285.31,196.177 291.5,196.5C 291.737,197.791 291.404,198.791 290.5,199.5C 285.265,197.55 279.598,196.883 273.5,197.5 Z"/></g>
<g><path style="opacity:0.245" fill="#a5a5a5" d="M 320.5,197.5 C 326.678,196.183 333.012,196.183 339.5,197.5C 339.376,198.107 339.043,198.44 338.5,198.5C 332.69,197.51 326.69,197.177 320.5,197.5 Z"/></g>
<g><path style="opacity:0.22" fill="#a3a3a3" d="M 368.5,197.5 C 374.31,196.51 380.31,196.177 386.5,196.5C 386.771,198.38 386.104,199.713 384.5,200.5C 384.414,199.504 384.748,198.671 385.5,198C 379.843,197.501 374.176,197.334 368.5,197.5 Z"/></g>
<g><path style="opacity:0.11" fill="#8e8e8e" d="M 121.5,197.5 C 121.842,198.338 122.508,198.672 123.5,198.5C 120.004,201.048 116.004,202.381 111.5,202.5C 111.5,201.833 111.5,201.167 111.5,200.5C 115.195,200.65 118.528,199.65 121.5,197.5 Z"/></g>
<g><path style="opacity:0.309" fill="#b4b4b4" d="M 142.5,208.5 C 142.461,209.583 142.127,210.583 141.5,211.5C 135.167,212.833 128.833,212.833 122.5,211.5C 122.855,210.478 123.522,209.811 124.5,209.5C 126.743,210.812 129.41,211.478 132.5,211.5C 136.351,211.63 139.685,210.63 142.5,208.5 Z"/></g>
<g><path style="opacity:0.338" fill="#b4b4b4" d="M 172.5,208.5 C 172.5,209.5 172.5,210.5 172.5,211.5C 177.511,211.666 182.511,211.499 187.5,211C 188.044,210.283 188.711,209.783 189.5,209.5C 189.586,210.496 189.252,211.329 188.5,212C 182.141,212.831 175.807,212.664 169.5,211.5C 170.188,210.145 171.188,209.145 172.5,208.5 Z"/></g>
<g><path style="opacity:0.371" fill="#b3b3b3" d="M 219.5,209.5 C 221.743,210.812 224.41,211.478 227.5,211.5C 230.585,211.456 233.585,211.122 236.5,210.5C 233.742,211.818 230.576,212.485 227,212.5C 223.833,212.167 220.667,211.833 217.5,211.5C 217.855,210.478 218.522,209.811 219.5,209.5 Z"/></g>
<g><path style="opacity:0.3" fill="#b3b3b3" d="M 267.5,208.5 C 267.5,209.5 267.5,210.5 267.5,211.5C 272.833,211.5 278.167,211.5 283.5,211.5C 277.654,212.817 271.654,212.817 265.5,211.5C 265.942,210.261 266.609,209.261 267.5,208.5 Z"/></g>
<g><path style="opacity:0.316" fill="#b5b5b5" d="M 314.5,209.5 C 319.735,211.45 325.402,212.117 331.5,211.5C 325.347,212.653 319.014,212.82 312.5,212C 313.066,211.005 313.733,210.172 314.5,209.5 Z"/></g>
<g><path style="opacity:0.968" fill="#f8f8f8" d="M 109.5,226.5 C 115.668,228.156 122.002,229.156 128.5,229.5C 219.668,228.615 311.001,228.448 402.5,229C 403.257,286.751 403.59,344.584 403.5,402.5C 402.221,407.559 399.554,411.725 395.5,415C 394.207,415.49 392.873,415.657 391.5,415.5C 299.145,415.823 206.811,415.49 114.5,414.5C 112.771,413.883 111.271,412.883 110,411.5C 107.56,407.071 105.726,402.404 104.5,397.5C 105.195,384.69 105.862,371.857 106.5,359C 105.265,333.296 105.265,307.63 106.5,282C 106.584,277.263 104.584,273.763 100.5,271.5C 98.4982,266.89 99.8315,263.556 104.5,261.5C 104.833,259.5 105.167,257.5 105.5,255.5C 104.237,249.888 103.737,244.221 104,238.5C 105.75,235.754 106.75,232.754 107,229.5C 108.045,228.627 108.878,227.627 109.5,226.5 Z M 390.5,274.5 C 389.37,280.646 389.37,286.813 390.5,293C 390.359,297.586 389.692,302.086 388.5,306.5C 390.29,312.029 390.79,317.696 390,323.5C 385.59,328.589 385.59,333.589 390,338.5C 390.167,340.167 390.333,341.833 390.5,343.5C 388.576,347.341 387.242,351.508 386.5,356C 387.923,360.045 389.256,364.045 390.5,368C 388.19,372.618 386.857,377.618 386.5,383C 386.667,384.833 386.833,386.667 387,388.5C 388.757,389.119 389.924,390.286 390.5,392C 388.802,396.016 387.136,400.016 385.5,404C 382.183,404.498 378.85,404.665 375.5,404.5C 376.593,399.761 374.76,397.761 370,398.5C 365.25,397.943 362.083,399.777 360.5,404C 356.104,405.214 352.437,404.214 349.5,401C 346.167,400.333 342.833,400.333 339.5,401C 335.785,404.31 331.452,405.31 326.5,404C 325.62,402.644 325.286,401.144 325.5,399.5C 321.204,398.537 316.871,398.371 312.5,399C 310.845,400.444 310.178,402.278 310.5,404.5C 307.482,404.665 304.482,404.498 301.5,404C 300.164,399.657 297.164,397.824 292.5,398.5C 288.209,397.485 285.875,399.152 285.5,403.5C 282.232,404.487 278.898,404.82 275.5,404.5C 276.272,399.106 273.938,397.106 268.5,398.5C 264.194,397.584 261.194,399.084 259.5,403C 256.854,403.497 254.187,403.664 251.5,403.5C 251.714,401.856 251.38,400.356 250.5,399C 246.167,398.333 241.833,398.333 237.5,399C 235.845,400.444 235.178,402.278 235.5,404.5C 232.5,404.5 229.5,404.5 226.5,404.5C 226.035,400.089 223.535,398.422 219,399.5C 214.713,398.727 211.547,400.227 209.5,404C 204.374,404.921 199.541,404.088 195,401.5C 186.602,404.565 177.936,405.232 169,403.5C 153.457,405.394 138.123,406.061 123,405.5C 120.982,404.777 119.148,403.777 117.5,402.5C 118.203,349.004 118.203,295.337 117.5,241.5C 208.763,240.503 300.096,240.169 391.5,240.5C 391.811,251.914 391.477,263.248 390.5,274.5 Z"/></g>
<g><path style="opacity:0.318" fill="#afafaf" d="M 390.5,274.5 C 391.477,263.248 391.811,251.914 391.5,240.5C 300.096,240.169 208.763,240.503 117.5,241.5C 208.827,239.502 300.494,238.836 392.5,239.5C 393.145,251.548 392.478,263.215 390.5,274.5 Z"/></g>
<g><path style="opacity:0.679" fill="#b1b1b1" d="M 117.5,241.5 C 118.203,295.337 118.203,349.004 117.5,402.5C 116.167,348.833 116.167,295.167 117.5,241.5 Z"/></g>
<g><path style="opacity:0.684" fill="#bcbcbc" d="M 114.5,414.5 C 206.811,415.49 299.145,415.823 391.5,415.5C 390.737,416.268 389.737,416.768 388.5,417C 299.5,417.667 210.5,417.667 121.5,417C 118.896,416.61 116.562,415.776 114.5,414.5 Z"/></g>
</svg>
